<?xml version="1.0" encoding="utf-8"?>
<!-- Generator: Adobe Illustrator 24.1.1, SVG Export Plug-In . SVG Version: 6.00 Build 0)  -->
<svg version="1.1" id="Layer_1" xmlns="http://www.w3.org/2000/svg" xmlns:xlink="http://www.w3.org/1999/xlink" x="0px" y="0px"
	 viewBox="0 0 512 512" style="enable-background:new 0 0 512 512;" xml:space="preserve">
<g>
	<path d="M105.4,496.9H75.3l18.1-24.1c12-16.6,19.6-37.6,24.1-63.2C42.2,375,0,310.2,0,225.9C0,96.4,97.9,15.1,256,15.1
		s256,81.3,256,210.8c0,132.5-96.4,210.8-256,210.8h-10.5C221.4,465.3,179.2,496.9,105.4,496.9z M256,45.2
		c-141.6,0-225.9,67.8-225.9,180.7c0,96.4,58.7,141.6,108.4,161.1l10.5,4.5l-1.5,12c-3,24.1-7.5,45.2-16.6,63.3
		c49.7-6,78.3-31.6,94.9-52.7l4.5-6H256c203.3,0,225.9-126.5,225.9-180.7C481.9,112.9,397.6,45.2,256,45.2z"/>
</g>
</svg>
