<?xml version="1.0" encoding="UTF-8"?>
<svg version="1.1" xmlns="http://www.w3.org/2000/svg" width="792" height="792">
<path d="M0 0 C1.15070984 -0.00701431 2.30141968 -0.01402863 3.48699951 -0.02125549 C7.17887326 -0.03866236 10.87058672 -0.04510747 14.5625 -0.046875 C16.45264832 -0.04788712 16.45264832 -0.04788712 18.38098145 -0.04891968 C36.32132942 -0.03362782 53.82951132 0.28339406 71.5625 3.203125 C72.69816406 3.38004883 73.83382813 3.55697266 75.00390625 3.73925781 C112.05991699 9.57588192 148.65112109 20.00507496 182.5625 36.203125 C183.66513184 36.7283374 183.66513184 36.7283374 184.79003906 37.26416016 C188.7828092 39.18344346 192.7342152 41.17208245 196.66308594 43.21875 C198.59320875 44.21903987 200.53388923 45.19621704 202.4765625 46.171875 C220.99167747 55.58592343 238.49160767 66.77674978 254.71337891 79.73925781 C256.49199679 81.14731074 258.29127184 82.52102238 260.10546875 83.8828125 C266.29605894 88.53334822 272.16917246 93.39885908 277.83203125 98.68359375 C279.93286852 100.62213458 282.05809574 102.49158513 284.2265625 104.3515625 C289.42283109 108.8818778 294.26270926 113.75751075 299.125 118.640625 C300.4852832 119.99510742 300.4852832 119.99510742 301.87304688 121.37695312 C306.97784159 126.48915145 311.90841463 131.67707646 316.5625 137.203125 C317.07272705 137.80664795 317.5829541 138.4101709 318.10864258 139.03198242 C335.89299706 160.26324847 350.99673462 183.0909844 364.5625 207.203125 C365.09738037 208.14091797 365.09738037 208.14091797 365.64306641 209.09765625 C394.37623812 259.64338201 411.52721261 322.38279592 411.765625 380.640625 C411.77263931 381.79133484 411.77965363 382.94204468 411.78688049 384.12762451 C411.80428736 387.81949826 411.81073247 391.51121172 411.8125 395.203125 C411.81351212 397.09327332 411.81351212 397.09327332 411.81454468 399.02160645 C411.79925282 416.96195442 411.48223094 434.47013632 408.5625 452.203125 C408.38557617 453.33878906 408.20865234 454.47445313 408.02636719 455.64453125 C402.18974308 492.70054199 391.76055004 529.29174609 375.5625 563.203125 C375.2123584 563.93821289 374.8622168 564.67330078 374.50146484 565.43066406 C372.58218154 569.4234342 370.59354255 573.3748402 368.546875 577.30371094 C367.54658513 579.23383375 366.56940796 581.17451423 365.59375 583.1171875 C356.17970157 601.63230247 344.98887522 619.13223267 332.02636719 635.35400391 C330.61831426 637.13262179 329.24460262 638.93189684 327.8828125 640.74609375 C323.23227678 646.93668394 318.36676592 652.80979746 313.08203125 658.47265625 C311.14349042 660.57349352 309.27403987 662.69872074 307.4140625 664.8671875 C302.8837472 670.06345609 298.00811425 674.90333426 293.125 679.765625 C292.22201172 680.67248047 291.31902344 681.57933594 290.38867188 682.51367188 C285.27647355 687.61846659 280.08854854 692.54903963 274.5625 697.203125 C273.95897705 697.71335205 273.3554541 698.2235791 272.73364258 698.74926758 C251.50237653 716.53362206 228.6746406 731.63735962 204.5625 745.203125 C203.93730469 745.55971191 203.31210937 745.91629883 202.66796875 746.28369141 C152.12224299 775.01686312 89.38282908 792.16783761 31.125 792.40625 C29.97429016 792.41326431 28.82358032 792.42027863 27.63800049 792.42750549 C23.94612674 792.44491236 20.25441328 792.45135747 16.5625 792.453125 C14.67235168 792.45413712 14.67235168 792.45413712 12.74401855 792.45516968 C-5.19632942 792.43987782 -22.70451132 792.12285594 -40.4375 789.203125 C-41.57316406 789.02620117 -42.70882813 788.84927734 -43.87890625 788.66699219 C-80.93491699 782.83036808 -117.52612109 772.40117504 -151.4375 756.203125 C-152.17258789 755.8529834 -152.90767578 755.5028418 -153.66503906 755.14208984 C-157.6578092 753.22280654 -161.6092152 751.23416755 -165.53808594 749.1875 C-167.46820875 748.18721013 -169.40888923 747.21003296 -171.3515625 746.234375 C-189.86667747 736.82032657 -207.36660767 725.62950022 -223.58837891 712.66699219 C-225.36699679 711.25893926 -227.16627184 709.88522762 -228.98046875 708.5234375 C-235.17105894 703.87290178 -241.04417246 699.00739092 -246.70703125 693.72265625 C-248.80786852 691.78411542 -250.93309574 689.91466487 -253.1015625 688.0546875 C-258.29783109 683.5243722 -263.13770926 678.64873925 -268 673.765625 C-268.90685547 672.86263672 -269.81371094 671.95964844 -270.74804688 671.02929688 C-275.85284159 665.91709855 -280.78341463 660.72917354 -285.4375 655.203125 C-285.94772705 654.59960205 -286.4579541 653.9960791 -286.98364258 653.37426758 C-304.76799706 632.14300153 -319.87173462 609.3152656 -333.4375 585.203125 C-333.79408691 584.57792969 -334.15067383 583.95273437 -334.51806641 583.30859375 C-363.25123812 532.76286799 -380.40221261 470.02345408 -380.640625 411.765625 C-380.64763931 410.61491516 -380.65465363 409.46420532 -380.66188049 408.27862549 C-380.67928736 404.58675174 -380.68573247 400.89503828 -380.6875 397.203125 C-380.68817474 395.94302612 -380.68884949 394.68292725 -380.68954468 393.38464355 C-380.67425282 375.44429558 -380.35723094 357.93611368 -377.4375 340.203125 C-377.26057617 339.06746094 -377.08365234 337.93179687 -376.90136719 336.76171875 C-371.06474308 299.70570801 -360.63555004 263.11450391 -344.4375 229.203125 C-344.0873584 228.46803711 -343.7372168 227.73294922 -343.37646484 226.97558594 C-341.45718154 222.9828158 -339.46854255 219.0314098 -337.421875 215.10253906 C-336.42158513 213.17241625 -335.44440796 211.23173577 -334.46875 209.2890625 C-325.05470157 190.77394753 -313.86387522 173.27401733 -300.90136719 157.05224609 C-299.49331426 155.27362821 -298.11960262 153.47435316 -296.7578125 151.66015625 C-292.10727678 145.46956606 -287.24176592 139.59645254 -281.95703125 133.93359375 C-280.01849042 131.83275648 -278.14903987 129.70752926 -276.2890625 127.5390625 C-271.7587472 122.34279391 -266.88311425 117.50291574 -262 112.640625 C-261.09701172 111.73376953 -260.19402344 110.82691406 -259.26367188 109.89257812 C-254.15147355 104.78778341 -248.96354854 99.85721037 -243.4375 95.203125 C-242.53221558 94.43778442 -242.53221558 94.43778442 -241.60864258 93.65698242 C-220.37737653 75.87262794 -197.5496406 60.76889038 -173.4375 47.203125 C-172.81230469 46.84653809 -172.18710938 46.48995117 -171.54296875 46.12255859 C-120.99724299 17.38938688 -58.25782908 0.23841239 0 0 Z " fill="#0877BF" transform="translate(380.4375,-0.203125)"/>
<path d="M0 0 C11.30967458 7.35727696 19.09384239 17.34315359 22.14453125 30.4921875 C24.8557151 44.9776555 22.64395099 58.07164229 14.33203125 70.4921875 C7.72335711 79.71771918 -1.80757925 86.1973643 -12.84375 89.05859375 C-27.50019117 91.30875277 -40.43988895 89.0077971 -52.66796875 80.4921875 C-53.30605469 80.05132812 -53.94414062 79.61046875 -54.6015625 79.15625 C-60.72069532 74.44083807 -65.61655458 67.38055193 -67.62988281 59.93481445 C-68.67474576 57.50215436 -69.20664657 56.68500483 -71.67889404 55.65168762 C-74.40502084 55.11178165 -77.08844858 54.79145588 -79.85546875 54.53125 C-80.86834961 54.41035004 -81.88123047 54.28945007 -82.92480469 54.16488647 C-86.16987181 53.78497146 -89.41784017 53.45071913 -92.66796875 53.1171875 C-94.82586003 52.87145014 -96.98341995 52.62278404 -99.140625 52.37109375 C-117.85567224 50.11232726 -117.85567224 50.11232726 -136.66796875 49.4921875 C-138.83927756 55.40340188 -140.11653619 61.50150605 -141.49609375 67.6328125 C-141.7675824 68.82783386 -142.03907104 70.02285522 -142.31878662 71.25408936 C-143.18801672 75.08281878 -144.05313016 78.91246397 -144.91796875 82.7421875 C-145.48408718 85.24095064 -146.05049082 87.73964919 -146.6171875 90.23828125 C-147.03635437 92.08649475 -147.03635437 92.08649475 -147.46398926 93.9720459 C-147.74270874 95.20072388 -148.02142822 96.42940186 -148.30859375 97.6953125 C-148.72522278 99.53204529 -148.72522278 99.53204529 -149.15026855 101.40588379 C-149.9888814 105.10145962 -150.82824433 108.79686409 -151.66796875 112.4921875 C-151.95341553 113.749104 -152.2388623 115.00602051 -152.53295898 116.30102539 C-153.36152 119.94354056 -154.19383181 123.58517745 -155.02734375 127.2265625 C-155.40490814 128.88912079 -155.40490814 128.88912079 -155.7901001 130.58526611 C-156.13908356 132.10491974 -156.13908356 132.10491974 -156.49511719 133.65527344 C-156.69828552 134.54470642 -156.90145386 135.4341394 -157.11077881 136.3505249 C-157.66796875 138.4921875 -157.66796875 138.4921875 -158.66796875 140.4921875 C-156.97498657 140.46862183 -156.97498657 140.46862183 -155.24780273 140.44458008 C-112.47337488 139.90506689 -69.45897965 141.51912713 -27.66796875 151.4921875 C-26.87165039 151.67894043 -26.07533203 151.86569336 -25.25488281 152.05810547 C-19.36822188 153.44707989 -13.51280399 154.93708801 -7.66796875 156.4921875 C-6.81493164 156.71632324 -5.96189453 156.94045898 -5.08300781 157.17138672 C15.40405342 162.63434603 33.13814607 170.47377392 44.29296875 189.5859375 C53.86841541 207.21691865 56.25810754 228.70159425 55.33203125 248.4921875 C56.83056641 248.44384766 56.83056641 248.44384766 58.359375 248.39453125 C73.63110709 248.76994256 89.3035474 255.54228114 100.2109375 266.109375 C109.65454739 276.71821852 112.48064213 289.43800817 112.5 303.30078125 C112.5033284 304.14455826 112.5066568 304.98833527 112.51008606 305.85768127 C112.51513418 307.64201313 112.51749504 309.42635437 112.51733398 311.21069336 C112.51949916 313.88997808 112.5376181 316.56883602 112.55664062 319.24804688 C112.61869361 337.95821576 112.11722599 355.33629845 98.33203125 369.4921875 C86.57851227 379.80134163 71.07670768 385.94407398 55.33203125 385.4921875 C55.38423828 387.24015625 55.38423828 387.24015625 55.4375 389.0234375 C56.12390795 422.88506238 49.8027502 453.94697711 26.14453125 479.1171875 C3.68368905 500.59634953 -25.34329265 511.14441776 -54.66796875 519.4921875 C-56.29025391 519.96785156 -56.29025391 519.96785156 -57.9453125 520.453125 C-116.78656207 536.5243033 -185.92372275 533.63093519 -245.66796875 524.4921875 C-247.26970947 524.24831299 -247.26970947 524.24831299 -248.90380859 523.99951172 C-287.85210334 517.94636172 -327.08690615 505.74984345 -355.66796875 477.4921875 C-356.67923828 476.58919922 -356.67923828 476.58919922 -357.7109375 475.66796875 C-374.65172727 460.27782336 -381.66481692 434.99037292 -383.79296875 412.9921875 C-383.87788574 412.1372168 -383.96280273 411.28224609 -384.05029297 410.40136719 C-384.81335807 402.08902424 -384.86239372 393.83085858 -384.66796875 385.4921875 C-386.1684375 385.53859375 -386.1684375 385.53859375 -387.69921875 385.5859375 C-402.53919712 385.23538683 -418.42184611 378.51340876 -429.1015625 368.1796875 C-429.61847656 367.6228125 -430.13539063 367.0659375 -430.66796875 366.4921875 C-431.36599609 365.7496875 -431.36599609 365.7496875 -432.078125 364.9921875 C-440.60268582 354.56459017 -441.80877521 340.45243169 -441.87109375 327.54296875 C-441.87679382 326.60849411 -441.8824939 325.67401947 -441.8883667 324.71122742 C-441.89776619 322.74214797 -441.90433044 320.77305315 -441.90820312 318.80395508 C-441.91788436 315.83060467 -441.9489465 312.85795363 -441.98046875 309.88476562 C-442.05289124 296.845575 -441.91068745 283.8736026 -434.66796875 272.4921875 C-434.2090625 271.76515625 -433.75015625 271.038125 -433.27734375 270.2890625 C-424.16160972 257.27922849 -409.1347402 251.69590501 -394.046875 248.75390625 C-390.91281082 248.40910773 -387.81792386 248.45008603 -384.66796875 248.4921875 C-384.72017578 247.01685547 -384.72017578 247.01685547 -384.7734375 245.51171875 C-385.35543911 221.48210675 -381.77011575 195.74594932 -365.10546875 177.3046875 C-355.49176641 168.28146208 -342.94833013 163.63652527 -330.66796875 159.4921875 C-329.68183594 159.14671875 -328.69570313 158.80125 -327.6796875 158.4453125 C-302.43186489 150.10908961 -275.24995624 145.50243538 -248.85546875 142.9296875 C-247.61732422 142.80400391 -246.37917969 142.67832031 -245.10351562 142.54882812 C-229.80717186 141.03426013 -214.52784065 140.32242061 -199.16796875 139.9296875 C-197.55468052 139.88632652 -195.9413992 139.84270788 -194.328125 139.79882812 C-190.44147898 139.69366036 -186.55475781 139.59192276 -182.66796875 139.4921875 C-180.8153135 130.97939853 -178.96315595 122.46650145 -177.11157036 113.95347977 C-176.08383401 109.22834595 -175.05575458 104.50328698 -174.02735519 99.77829742 C-173.52769728 97.48209343 -173.02837966 95.18581563 -172.52911377 92.88952637 C-171.86664697 89.84277093 -171.20268646 86.79634612 -170.53778076 83.75012207 C-168.98295004 76.61697212 -167.44989746 69.48073859 -165.97753906 62.33007812 C-165.71409698 61.06250671 -165.45065491 59.7949353 -165.17922974 58.48895264 C-164.69577049 56.15497767 -164.21944674 53.81950671 -163.75216675 51.48223877 C-160.0034748 33.46090516 -160.0034748 33.46090516 -153.73046875 28.4921875 C-153.08207031 27.9559375 -152.43367188 27.4196875 -151.765625 26.8671875 C-141.89828559 20.39921083 -128.28000515 23.53022878 -117.2265625 24.98828125 C-116.01525162 25.14128189 -114.80394073 25.29428253 -113.55592346 25.45191956 C-109.73801631 25.93638314 -105.9218077 26.433039 -102.10546875 26.9296875 C-99.5137682 27.25922201 -96.9219719 27.58800435 -94.33007812 27.91601562 C-89.60417677 28.51839993 -84.87830216 29.12086797 -80.15405273 29.73608398 C-79.21254868 29.85821762 -78.27104462 29.98035126 -77.30101013 30.10618591 C-74.73383795 30.48253113 -72.20683522 30.95932169 -69.66796875 31.4921875 C-69.35859375 29.5740625 -69.35859375 29.5740625 -69.04296875 27.6171875 C-66.53246113 16.31100068 -58.67555855 7.42603913 -49.30078125 1.1015625 C-34.39363446 -8.01081803 -15.31673324 -8.65630898 0 0 Z " fill="#F6F1EC" transform="translate(561.66796875,88.5078125)"/>
<path d="M0 0 C15.6609243 10.03665927 32.40195206 16.7794156 50.3125 21.625 C51.17109619 21.86299316 52.02969238 22.10098633 52.91430664 22.34619141 C69.85413316 26.73213578 87.00480609 27.99484391 104.4375 27.875 C105.83742188 27.87093643 105.83742188 27.87093643 107.265625 27.86679077 C121.91290328 27.8025401 135.83832267 26.89440566 150.125 23.4375 C150.96804688 23.24494629 151.81109375 23.05239258 152.6796875 22.85400391 C173.15077423 18.14171721 193.75559723 10.63714648 210.75390625 -1.96875 C214.06228255 -4.21099714 214.92815161 -4.56115304 219.12109375 -4.58984375 C220.46531155 -4.28718756 221.80071433 -3.94301248 223.125 -3.5625 C223.8277002 -3.39508301 224.53040039 -3.22766602 225.25439453 -3.05517578 C251.12550444 3.37416234 276.59893321 15.38022383 297.125 32.4375 C297.64263916 32.85797607 298.16027832 33.27845215 298.69360352 33.71166992 C308.78325463 41.96001832 315.76240158 52.6162487 321.875 64 C322.44033447 65.04401978 322.44033447 65.04401978 323.01708984 66.10913086 C325.61814098 71.06763894 327.50172836 76.08211104 329.125 81.4375 C322.22446481 87.16342858 314.85910882 91.80351268 307.125 96.3125 C306.52729797 96.66299408 305.92959595 97.01348816 305.31378174 97.37460327 C249.09516406 130.33418989 183.38841539 152.37175277 117.6875 152.640625 C116.53679016 152.64763931 115.38608032 152.65465363 114.20050049 152.66188049 C110.50862674 152.67928736 106.81691328 152.68573247 103.125 152.6875 C101.86490112 152.68817474 100.60480225 152.68884949 99.30651855 152.68954468 C81.36617058 152.67425282 63.85798868 152.35723094 46.125 149.4375 C44.98933594 149.26057617 43.85367188 149.08365234 42.68359375 148.90136719 C5.62758301 143.06474308 -30.96362109 132.63555004 -64.875 116.4375 C-65.61008789 116.0873584 -66.34517578 115.7372168 -67.10253906 115.37646484 C-71.0953092 113.45718154 -75.0467152 111.46854255 -78.97558594 109.421875 C-80.90570875 108.42158513 -82.84638923 107.44440796 -84.7890625 106.46875 C-93.75284445 101.90800194 -102.33485262 96.81046251 -110.875 91.5 C-112.47988281 90.50504517 -112.47988281 90.50504517 -114.1171875 89.48999023 C-115.10976562 88.86552002 -116.10234375 88.2410498 -117.125 87.59765625 C-118.01703125 87.03699463 -118.9090625 86.47633301 -119.828125 85.89868164 C-121.875 84.4375 -121.875 84.4375 -122.875 82.4375 C-119.03784624 68.25767316 -110.37908531 55.42082038 -100.875 44.4375 C-100.21242187 43.63054688 -99.54984375 42.82359375 -98.8671875 41.9921875 C-88.59995021 29.90639896 -75.8643449 21.61333174 -61.875 14.4375 C-61.16811035 14.06915039 -60.4612207 13.70080078 -59.73291016 13.32128906 C-14.83580274 -9.84557818 -14.83580274 -9.84557818 0 0 Z " fill="#F7F1EC" transform="translate(293.875,639.5625)"/>
<path d="M0 0 C9.81740335 6.78500077 17.05570249 16.44584994 20.0859375 28.0234375 C22.27450595 40.13493279 20.64483701 51.93182681 14.0234375 62.4609375 C7.34072484 71.53745768 -0.42708738 78.20912722 -11.5234375 81.28515625 C-25.56983872 83.17289514 -37.66120057 82.07818009 -49.5390625 73.8359375 C-58.13382373 66.8103443 -64.64206071 57.88399568 -66.2265625 46.6484375 C-66.92151982 36.56543873 -67.46104239 26.62667162 -62.2265625 17.6484375 C-61.81792969 16.92398437 -61.40929687 16.19953125 -60.98828125 15.453125 C-59.80175575 13.46211317 -58.54435668 11.5543027 -57.2265625 9.6484375 C-56.6696875 8.8028125 -56.1128125 7.9571875 -55.5390625 7.0859375 C-40.54127525 -8.72254095 -18.33680417 -11.13076183 0 0 Z " fill="#0876BF" transform="translate(324.2265625,361.3515625)"/>
<path d="M0 0 C10.94831012 7.13160757 17.54947359 16.51821221 21.62109375 28.88671875 C23.96393198 41.95347632 21.39967437 55.03154534 14 66 C7.51819979 75.01815682 -1.28599183 80.32257194 -12 83 C-15.28374515 83.43380914 -18.50265336 83.52502598 -21.8125 83.5 C-22.68616211 83.49500488 -23.55982422 83.49000977 -24.45996094 83.48486328 C-36.20183731 83.16968889 -45.20513487 78.40750939 -53.64453125 70.44921875 C-62.42291746 61.13746224 -65.50354695 48.52212178 -65.25 36.05078125 C-64.21699605 23.44490493 -58.34875115 12.44155326 -49 4 C-34.04915102 -6.43776026 -16.325516 -8.96600812 0 0 Z " fill="#0876BF" transform="translate(514,360)"/>
<path d="M0 0 C3.37325842 1.61038143 6.18437995 3.77140324 9.125 6.0625 C38.23938822 27.30269774 77.63275032 31.12555446 112.63891602 25.81762695 C117.13061158 25.02461406 121.56686823 24.07067302 126 23 C126.77714355 22.81808105 127.55428711 22.63616211 128.35498047 22.44873047 C142.43859295 19.0530049 154.8750203 13.30732453 166.375 4.5 C171.03021696 0.98772356 174.78978479 -1.43941124 180.8046875 -0.71484375 C184.85369846 0.60360644 187.6058138 2.45225136 190 6 C191.62164219 10.50366964 191.56079184 13.78088731 189.5625 18.125 C169.26485669 40.89796567 135.53298788 51.17921732 106 54 C102.7302909 54.15368223 99.46441112 54.18709659 96.19140625 54.203125 C94.80392433 54.21167511 94.80392433 54.21167511 93.38841248 54.22039795 C91.43611781 54.22980061 89.48380761 54.23636298 87.53149414 54.24023438 C84.60207958 54.24986981 81.67338897 54.28090982 78.74414062 54.3125 C63.6265144 54.39857303 49.49784895 52.79410916 35 48.3125 C34.16952148 48.05758789 33.33904297 47.80267578 32.48339844 47.54003906 C16.80580228 42.53731394 -8.29499514 32.84167477 -17.171875 18.046875 C-18.51489138 14.72734395 -18.5494706 11.4844477 -18 8 C-13.94331611 0.17639535 -8.4199293 -1.41468448 0 0 Z " fill="#0975BF" transform="translate(310,493)"/>
<path d="M0 0 C0.33 0 0.66 0 1 0 C1.05429959 1.74965358 1.09292823 3.49979787 1.125 5.25 C1.14820313 6.22453125 1.17140625 7.1990625 1.1953125 8.203125 C0.99862781 11.0196498 0.44568916 12.60949036 -1 15 C-1.99 14.67 -2.98 14.34 -4 14 C-3.2884375 12.205625 -3.2884375 12.205625 -2.5625 10.375 C-1.26517227 6.93585762 -0.45763049 3.66104396 0 0 Z " fill="#1370BD" transform="translate(672,432)"/>
<path d="M0 0 C3.21043882 1.38188453 5.04936365 2.92421903 7.25 5.625 C8.03117187 6.57246094 8.03117187 6.57246094 8.828125 7.5390625 C9.40820312 8.26222656 9.40820312 8.26222656 10 9 C7 9 7 9 5.17578125 7.28515625 C4.56089844 6.55167969 3.94601563 5.81820312 3.3125 5.0625 C2.68988281 4.33160156 2.06726563 3.60070312 1.42578125 2.84765625 C0 1 0 1 0 0 Z " fill="#2479BF" transform="translate(100,659)"/>
<path d="M0 0 C0.99 0.495 0.99 0.495 2 1 C2 1.66 2 2.32 2 3 C2.99 3.33 3.98 3.66 5 4 C6.38671875 5.62890625 6.38671875 5.62890625 7.6875 7.5625 C8.12449219 8.20316406 8.56148437 8.84382812 9.01171875 9.50390625 C9.50091797 10.24447266 9.50091797 10.24447266 10 11 C9.01 11 8.02 11 7 11 C5.17578125 9.1015625 5.17578125 9.1015625 3.3125 6.625 C2.68988281 5.81289063 2.06726563 5.00078125 1.42578125 4.1640625 C0 2 0 2 0 0 Z " fill="#2076BD" transform="translate(88,644)"/>
<path d="M0 0 C3.7952131 1.49097658 5.61042731 3.75700849 8 7 C5 7 5 7 2.3125 4.625 C0 2 0 2 0 0 Z " fill="#2E80C1" transform="translate(122,681)"/>
<path d="M0 0 C0.66 0.33 1.32 0.66 2 1 C-0.31 3.64 -2.62 6.28 -5 9 C-5.66 8.34 -6.32 7.68 -7 7 C-4.69 4.69 -2.38 2.38 0 0 Z " fill="#DDEAEE" transform="translate(202,674)"/>
<path d="M0 0 C0.33 0 0.66 0 1 0 C1.66 3.63 2.32 7.26 3 11 C2.01 10.67 1.02 10.34 0 10 C-1.125 3.375 -1.125 3.375 0 0 Z " fill="#E6EFEF" transform="translate(449,405)"/>
</svg>
