<?xml version="1.0" encoding="UTF-8"?>
<svg version="1.1" xmlns="http://www.w3.org/2000/svg" width="1180" height="1180">
<path d="M0 0 C3.82279092 0.01611344 7.64452522 0.0000049 11.46728516 -0.01904297 C101.57888548 -0.09708378 193.15475505 30.41000973 265.32275391 84.39111328 C266.31734619 85.13095459 266.31734619 85.13095459 267.33203125 85.88574219 C277.3323877 93.34756427 286.97519162 101.12723859 296.32275391 109.39111328 C297.16837891 110.13619141 298.01400391 110.88126953 298.88525391 111.64892578 C301.38362855 113.87609529 303.85596939 116.12899648 306.32275391 118.39111328 C306.88075684 118.89868164 307.43875977 119.40625 308.01367188 119.92919922 C316.41617343 127.58327269 324.42240048 135.44251483 332 143.91552734 C333.23999496 145.2987923 334.49379783 146.66964433 335.74853516 148.03955078 C401.88390364 220.45720815 445.79315011 322.09919754 447.52587891 427.51220703 C447.53289322 428.72266693 447.53990753 429.93312683 447.5471344 431.18026733 C447.5645366 435.06308762 447.57098629 438.94575544 447.57275391 442.82861328 C447.57319576 443.49004208 447.57363762 444.15147087 447.57409286 444.83294296 C447.58099461 464.53004335 447.30312549 483.88322652 444.32275391 503.39111328 C444.14583008 504.61314453 443.96890625 505.83517578 443.78662109 507.09423828 C441.24739675 524.42586971 437.83701805 541.46677698 433.32275391 558.39111328 C433.06268555 559.36677246 432.80261719 560.34243164 432.53466797 561.34765625 C417.06233358 618.47409038 390.15936419 670.42343465 354.32275391 717.39111328 C355.58696075 720.1537097 356.87915474 722.19659182 359.02810878 724.3391118 C359.58185838 724.89607487 360.13560798 725.45303793 360.70613787 726.02687865 C361.31563399 726.62969151 361.92513011 727.23250437 362.55309582 727.85358429 C363.20235022 728.5036484 363.85160463 729.15371251 364.52053341 729.82347554 C366.71234301 732.01556773 368.91125813 734.20039296 371.1101532 736.38537598 C372.69282486 737.96534103 374.2750501 739.54575336 375.85686523 741.12657595 C380.21663179 745.48109496 384.5825892 749.82936116 388.94950926 754.17670465 C393.17054261 758.38080295 397.38686348 762.58962027 401.6031982 766.79842965 C409.70087397 774.88143957 417.80205539 782.96092503 425.90571654 791.03793396 C438.76478468 803.85472737 451.61512498 816.68024204 464.46270252 829.50855256 C469.40359297 834.44196373 474.34475274 839.37510516 479.28589344 844.30826569 C479.83485715 844.85634609 480.38382085 845.4044265 480.94941982 845.9691154 C494.01892371 859.01750943 507.09088314 872.06344226 520.16381836 885.10839844 C520.7359081 885.67926861 521.30799784 886.25013878 521.89742363 886.83830804 C535.25058637 900.16294282 548.60545348 913.48586585 561.96374512 926.80535889 C562.5385808 927.37852612 563.11341649 927.95169334 563.70567144 928.54222928 C566.60434956 931.4324809 569.50304771 934.32271244 572.40175322 937.21293658 C573.26110355 938.06977264 573.26110355 938.06977264 574.13781449 938.94391852 C575.2941659 940.09688507 576.45051897 941.24984994 577.60687372 942.40281314 C596.69294885 961.43301035 615.77062755 980.47159101 634.83877936 999.51974781 C637.52902055 1002.20714747 640.21937248 1004.89443624 642.90979958 1007.58164978 C643.43932063 1008.11054072 643.96884169 1008.63943166 644.51440884 1009.1843496 C653.05240229 1017.71162913 661.59949569 1026.22973174 670.15017099 1034.7442926 C678.7351591 1043.29332346 687.31130594 1051.85113893 695.87831172 1060.4181906 C700.5237507 1065.06312964 705.17356483 1069.70353511 709.83409309 1074.3333416 C714.09385569 1078.56517975 718.34213053 1082.80819549 722.58125994 1087.0606994 C724.12322262 1088.60339216 725.66949656 1090.14178915 727.2202967 1091.67559773 C729.31515295 1093.74869414 731.394281 1095.83634762 733.46993542 1097.92864227 C734.08645504 1098.53145513 734.70297466 1099.13426799 735.3381767 1099.75534791 C736.99344653 1101.44311476 736.99344653 1101.44311476 739.32275391 1104.39111328 C738.88792985 1107.64929345 737.8274592 1109.26429087 735.53398132 1111.57429504 C734.94098236 1112.1786438 734.3479834 1112.78299255 733.73701477 1113.40565491 C733.08299179 1114.05674728 732.42896881 1114.70783966 731.75512695 1115.37866211 C731.06890259 1116.07335602 730.38267822 1116.76804993 729.67565918 1117.48379517 C727.4030651 1119.77980646 725.11941725 1122.06442827 722.83447266 1124.34814453 C721.25334954 1125.93636484 719.67252765 1127.52488508 718.09199524 1129.11369324 C714.77736955 1132.44177358 711.45685284 1135.76384401 708.13256836 1139.08227539 C703.86486666 1143.3440715 699.61571832 1147.62385365 695.37121868 1151.90874195 C692.11225671 1155.19349548 688.84195348 1158.46676945 685.56824684 1161.73682213 C683.99615555 1163.31061177 682.4280674 1164.88841047 680.86401939 1166.47019386 C678.68053644 1168.67570244 676.48189814 1170.86488477 674.27856445 1173.05053711 C673.63061417 1173.71175064 672.98266388 1174.37296417 672.31507874 1175.05421448 C671.7136203 1175.64446411 671.11216187 1176.23471375 670.49247742 1176.84284973 C669.97388499 1177.36215466 669.45529257 1177.8814596 668.92098522 1178.41650105 C667.32275391 1179.39111328 667.32275391 1179.39111328 665.40780278 1179.11367765 C661.81572899 1177.86886053 659.45351244 1174.92511344 656.83349228 1172.27099514 C656.18054141 1171.6215058 655.52759053 1170.97201646 654.85485327 1170.30284563 C652.6505743 1168.10655972 650.45723121 1165.89966177 648.26361084 1163.69273376 C646.67687586 1162.107306 645.08948221 1160.52253722 643.50148416 1158.93837458 C639.12554098 1154.56916469 634.75904924 1150.19061283 630.39398336 1145.8105396 C626.17307777 1141.57804396 621.94514652 1137.35258167 617.71736008 1133.12696184 C609.06711797 1124.48066458 600.4238851 1115.82739242 591.7845993 1107.17014885 C583.22829357 1098.59610338 574.66890302 1090.02515702 566.10535431 1081.45834541 C565.5732721 1080.92605699 565.0411899 1080.39376857 564.49298399 1079.84535019 C561.79088663 1077.14223786 559.08873386 1074.43918093 556.38655975 1071.73614533 C537.23786787 1052.58114908 518.09614356 1033.41920396 498.95849609 1014.25317383 C480.36435884 995.63149178 461.76707925 977.01295719 443.16552734 958.39868164 C442.59233598 957.8250957 442.01914461 957.25150975 441.42858381 956.66054242 C435.67245506 950.90045817 429.91626226 945.14043792 424.16002254 939.38046456 C412.43347931 927.64631231 400.70736362 915.91173286 388.98150635 904.17689514 C388.44234776 903.63732469 387.90318917 903.09775423 387.34769245 902.54183315 C351.33221743 866.49874744 315.32674198 830.44567306 279.32275391 794.39111328 C275.1693555 795.95774601 272.28178766 797.83297298 268.82275391 800.64111328 C252.45361864 813.54888091 234.48259344 824.22761959 216.32275391 834.39111328 C215.44683594 834.88208496 214.57091797 835.37305664 213.66845703 835.87890625 C155.92057027 867.92787712 86.41266029 887.33627335 20.20166016 887.59423828 C18.99120026 887.60125259 17.78074036 887.60826691 16.53359985 887.61549377 C12.65077957 887.63289597 8.76811175 887.63934566 4.88525391 887.64111328 C3.89311071 887.64177607 3.89311071 887.64177607 2.88092422 887.64245224 C-16.81617616 887.64935399 -36.16935933 887.37148487 -55.67724609 884.39111328 C-56.89927734 884.21418945 -58.12130859 884.03726563 -59.38037109 883.85498047 C-119.18403334 875.09325971 -175.99334396 854.69516693 -227.67724609 823.39111328 C-228.44149902 822.93349609 -229.20575195 822.47587891 -229.99316406 822.00439453 C-240.99825274 815.4069238 -251.38817693 808.05007719 -261.67724609 800.39111328 C-262.58434326 799.71798096 -262.58434326 799.71798096 -263.50976562 799.03125 C-275.81863754 789.85695745 -287.36649407 779.76067864 -298.67724609 769.39111328 C-299.22461426 768.89417969 -299.77198242 768.39724609 -300.3359375 767.88525391 C-319.20345593 750.73389585 -335.86767074 731.84784375 -351.13525391 711.44775391 C-352.56452396 709.54145705 -354.00620211 707.64526529 -355.45068359 705.75048828 C-367.12596902 690.29564878 -377.33469216 673.75182062 -386.453125 656.67480469 C-387.72385374 654.30416316 -389.01840635 651.94748278 -390.31396484 649.59033203 C-404.23195431 623.99242176 -414.03034674 597.12263135 -422.67724609 569.39111328 C-423.00450684 568.34793945 -423.33176758 567.30476562 -423.66894531 566.22998047 C-431.60081754 540.48450227 -436.16607849 513.1664718 -438.67724609 486.39111328 C-438.76344208 485.50781342 -438.84963806 484.62451355 -438.93844604 483.71444702 C-439.6342756 476.10973582 -439.85283547 468.56426511 -439.88037109 460.93017578 C-439.88607117 459.66434662 -439.89177124 458.39851746 -439.89764404 457.09432983 C-439.90704333 454.42010948 -439.91396413 451.74599975 -439.91748047 449.07177734 C-439.92393567 445.08951312 -439.95809468 441.10763135 -439.98974609 437.12548828 C-440.3801007 342.82983676 -407.1324011 248.92753058 -349.67724609 174.39111328 C-349.24412109 173.82650391 -348.81099609 173.26189453 -348.36474609 172.68017578 C-343.04690522 165.76093965 -337.62152825 159.03616988 -331.71240234 152.60595703 C-329.89257441 150.62545331 -328.12158279 148.61485051 -326.36474609 146.57861328 C-317.10001062 135.95648634 -307.55914562 125.47810278 -296.85302734 116.28955078 C-294.37072412 114.12366323 -291.96669464 111.88234371 -289.55224609 109.64111328 C-283.73777442 104.34062806 -277.62092982 99.50417511 -271.38427734 94.71289062 C-269.82295152 93.50393496 -268.28030239 92.27095763 -266.73974609 91.03564453 C-251.39861834 78.85658433 -234.71194793 68.05171885 -217.67724609 58.39111328 C-216.91395996 57.95412109 -216.15067383 57.51712891 -215.36425781 57.06689453 C-149.94855345 19.8104372 -75.31573292 -0.37527962 0 0 Z M-100.67724609 121.39111328 C-101.50095703 121.64940918 -102.32466797 121.90770508 -103.17333984 122.17382812 C-125.55922593 129.23517833 -147.59356027 139.25190876 -167.67724609 151.39111328 C-168.43086426 151.84276855 -169.18448242 152.29442383 -169.9609375 152.75976562 C-187.68301187 163.4516562 -204.26204038 175.58135774 -219.67724609 189.39111328 C-220.65564453 190.25865234 -221.63404297 191.12619141 -222.64208984 192.02001953 C-233.96167221 202.2152407 -245.20950117 212.77945921 -254.62646484 224.78564453 C-256.79470826 227.54034617 -259.07399178 230.17518704 -261.36474609 232.82861328 C-273.86082057 247.85872143 -284.04670953 264.42920691 -293.67724609 281.39111328 C-294.0554248 282.04289551 -294.43360352 282.69467773 -294.82324219 283.36621094 C-315.56408981 319.14987111 -327.02492979 360.66617434 -332.67724609 401.39111328 C-332.79583984 402.22449219 -332.91443359 403.05787109 -333.03662109 403.91650391 C-339.513331 451.83644688 -333.68647849 502.61909323 -318.67724609 548.39111328 C-318.35949219 549.3767627 -318.04173828 550.36241211 -317.71435547 551.37792969 C-304.51746417 591.79503613 -282.88204 628.85118151 -255.67724609 661.39111328 C-255.26200684 661.89803711 -254.84676758 662.40496094 -254.41894531 662.92724609 C-243.03125771 676.82711114 -230.46311192 690.33343769 -216.24755859 701.37548828 C-213.84463644 703.25984669 -211.5530282 705.23866261 -209.26196289 707.25634766 C-152.16968669 757.14502284 -72.07155635 782.57916897 2.82275391 782.64111328 C3.67458252 782.64212036 4.52641113 782.64312744 5.40405273 782.64416504 C21.20378513 782.63163142 36.66265175 781.60418938 52.32275391 779.39111328 C53.79591064 779.19026123 53.79591064 779.19026123 55.29882812 778.98535156 C116.19526298 770.41935689 174.56961639 743.01006833 221.32275391 703.39111328 C222.35732543 702.54144248 223.39251614 701.69252522 224.42822266 700.84423828 C238.6600428 689.06137316 251.97881155 675.98592489 263.32275391 661.39111328 C264.90263928 659.53400782 266.48619421 657.68001999 268.07275391 655.82861328 C316.70037485 597.33997323 342.51017124 520.55724076 342.57275391 444.89111328 C342.57376099 444.03928467 342.57476807 443.18745605 342.57580566 442.30981445 C342.56327205 426.51008206 341.53583001 411.05121544 339.32275391 395.39111328 C339.12190186 393.91795654 339.12190186 393.91795654 338.91699219 392.41503906 C330.34353887 331.46557999 302.83639434 273.29294692 263.32275391 226.39111328 C262.46946608 225.3510958 261.61662102 224.31071494 260.76416016 223.27001953 C249.73634306 209.95532792 237.56147691 197.02757894 223.88916016 186.40283203 C221.50643994 184.53509853 219.23178947 182.57629934 216.95922852 180.57714844 C187.43813348 154.81544832 151.06146135 136.33497128 114.32275391 123.39111328 C113.47165039 123.09124512 112.62054687 122.79137695 111.74365234 122.48242188 C90.56197053 115.15295601 68.4969303 110.46872277 46.32275391 107.39111328 C45.489375 107.27251953 44.65599609 107.15392578 43.79736328 107.03173828 C-4.24107642 100.53901272 -54.7609014 106.5520902 -100.67724609 121.39111328 Z " fill="#BCBCBC" transform="translate(440.67724609375,0.60888671875)"/>
</svg>
