<?xml version="1.0" encoding="UTF-8"?>
<svg version="1.1" xmlns="http://www.w3.org/2000/svg" width="512" height="512">
<path d="M0 0 C9.32856029 8.10346892 15.36785617 18.32708842 21.67098999 28.83877563 C23.52210694 31.92553461 25.38510023 35.00512686 27.24609375 38.0859375 C27.62545578 38.71469284 28.00481781 39.34344818 28.39567566 39.99125671 C32.21915058 46.32374537 36.09587239 52.62278434 39.98046875 58.91796875 C44.94296581 66.96545758 49.88438885 75.02497638 54.79296875 83.10546875 C59.76475298 91.28965956 64.76884821 99.45330382 69.79296875 107.60546875 C75.39344028 116.6928239 80.96176356 125.79885016 86.50390625 134.921875 C90.90794611 142.16562382 95.34520243 149.38849926 99.79296875 156.60546875 C105.39344028 165.6928239 110.96176356 174.79885016 116.50390625 183.921875 C120.90794611 191.16562382 125.34520243 198.38849926 129.79296875 205.60546875 C135.3956808 214.69645937 140.96633188 223.80606838 146.51049805 232.93286133 C150.18857725 238.98279085 153.88801052 245.01908777 157.60424805 251.0456543 C158.93720901 253.20860584 160.26810584 255.37283081 161.59692383 257.53833008 C164.78780091 262.73823499 167.98967214 267.92901044 171.24183655 273.09074402 C172.7911869 275.55533352 174.32780022 278.02772785 175.86264038 280.50137329 C176.93833244 282.22543493 178.0300155 283.93948784 179.12231445 285.65307617 C189.60591782 302.60697915 193.15684154 320.16305835 188.89453125 339.76171875 C184.30908369 355.76200384 174.17999724 368.88300615 159.875 377.328125 C148.36544783 383.388135 137.90706038 385.05342071 124.98677063 384.99987793 C123.51199687 385.00477532 122.03722695 385.01096903 120.56246346 385.01833582 C116.53638426 385.03465128 112.51050194 385.03243464 108.48440135 385.02696085 C104.13180398 385.0242802 99.77925788 385.0388419 95.42668152 385.05105591 C86.90901641 385.07206936 78.39141944 385.07665307 69.87373147 385.07486802 C62.94620492 385.0735582 56.01869955 385.07737579 49.09117699 385.08479309 C47.09242557 385.08689239 45.09367414 385.08898999 43.09492272 385.09108591 C42.09994321 385.09212944 41.1049637 385.09317297 40.07983329 385.09424812 C21.27825892 385.11313443 2.4767236 385.11210539 -16.32485632 385.10527879 C-33.50143665 385.09970604 -50.67786771 385.12052023 -67.85441317 385.15363926 C-85.51468531 385.18742515 -103.17488604 385.20253839 -120.83519107 385.19792223 C-130.74065854 385.1956823 -140.64598809 385.2008507 -150.55142784 385.22581482 C-158.98583329 385.24689145 -167.42002523 385.25035719 -175.85443964 385.23151523 C-180.15223176 385.22239599 -184.44962646 385.22109624 -188.74738693 385.24187088 C-192.69251845 385.2607289 -196.63693119 385.25591417 -200.58203659 385.23332506 C-201.99853877 385.22917628 -203.41509768 385.23321187 -204.83153959 385.246921 C-219.81351355 385.38188736 -233.16454633 381.7477699 -245.20703125 372.60546875 C-245.98433594 372.033125 -246.76164062 371.46078125 -247.5625 370.87109375 C-260.37388016 360.5514278 -267.34949473 344.68118605 -269.20703125 328.60546875 C-270.69096166 310.98054091 -264.02538621 295.94487315 -254.83203125 281.41796875 C-254.11497522 280.27140207 -253.39884597 279.12425531 -252.68359375 277.9765625 C-251.22693258 275.63976901 -249.76722803 273.30492094 -248.30566406 270.97119141 C-245.23146107 266.04087935 -242.21760854 261.07479256 -239.20703125 256.10546875 C-233.56384269 246.8133193 -227.87177883 237.55190783 -222.16796875 228.296875 C-217.82539303 221.24647698 -213.50619938 214.1824099 -209.20703125 207.10546875 C-203.56260147 197.81406722 -197.87178453 188.55191708 -192.16796875 179.296875 C-187.82539303 172.24647698 -183.50619938 165.1824099 -179.20703125 158.10546875 C-173.56260147 148.81406722 -167.87178453 139.55191708 -162.16796875 130.296875 C-157.82539303 123.24647698 -153.50619938 116.1824099 -149.20703125 109.10546875 C-143.56260147 99.81406722 -137.87178453 90.55191708 -132.16796875 81.296875 C-127.82539246 74.24647605 -123.50632969 67.18233137 -119.20703125 60.10546875 C-114.42832671 52.24210872 -109.63161353 44.39001492 -104.81225586 36.55151367 C-103.80725418 34.91682703 -102.80302603 33.2816649 -101.79882812 31.64648438 C-99.94154272 28.62863419 -98.07661093 25.61571608 -96.20703125 22.60546875 C-95.28591553 21.11708496 -95.28591553 21.11708496 -94.34619141 19.59863281 C-84.44282914 3.77776514 -71.69994881 -7.61481057 -53.1328125 -12.14453125 C-34.28681762 -15.61933696 -15.25786259 -11.90892775 0 0 Z " fill="#ED4040" transform="translate(295.20703125,68.39453125)"/>
<path d="M0 0 C5.00230198 2.45567552 8.49851535 5.9970307 11 11 C11.10206084 12.38815955 11.14372274 13.78101292 11.15390015 15.17288208 C11.16250061 16.0475563 11.17110107 16.92223053 11.17996216 17.82341003 C11.18422211 18.78547867 11.18848206 19.7475473 11.19287109 20.73876953 C11.20513733 22.25611946 11.20513733 22.25611946 11.21765137 23.80412292 C11.2425345 27.16368005 11.259031 30.52319477 11.2734375 33.8828125 C11.27876118 35.02941219 11.28408485 36.17601189 11.28956985 37.35735703 C11.31631712 43.42898643 11.33568495 49.50059518 11.35009766 55.57226562 C11.3667278 61.84031044 11.41148808 68.10782767 11.4624691 74.37567329 C11.49615298 79.19703769 11.50767655 84.01827723 11.51332474 88.83974838 C11.52003652 91.14977921 11.53525655 93.45980184 11.55921555 95.76971817 C11.59088599 99.0085342 11.59090013 102.24593261 11.58349609 105.48486328 C11.59990143 106.43478653 11.61630676 107.38470978 11.63320923 108.36341858 C11.57343056 114.77062745 10.13227871 119.04446833 6 124 C1.50700954 127.63033629 -2.53540728 127.50823647 -8.12109375 127.34375 C-12.09580904 126.86915713 -14.13677679 125.79164263 -17 123 C-21.12639211 117.15942624 -21.57782888 112.71041726 -21.51757812 105.66186523 C-21.52809204 104.13860123 -21.52809204 104.13860123 -21.53881836 102.58456421 C-21.55636152 99.24229237 -21.54478901 95.90087355 -21.53125 92.55859375 C-21.53394575 90.22884458 -21.53782886 87.89909652 -21.54284668 85.5693512 C-21.54873659 80.69301615 -21.54019397 75.81697469 -21.52148438 70.94067383 C-21.49868288 64.69387954 -21.51182933 58.44777224 -21.53577423 52.20100307 C-21.55023483 47.39255098 -21.54562513 42.58426153 -21.53526306 37.77580452 C-21.53259718 35.47253399 -21.53586062 33.16924863 -21.54518127 30.86599541 C-21.55535215 27.64651285 -21.53983757 24.42814023 -21.51757812 21.20874023 C-21.52567505 20.25948166 -21.53377197 19.31022308 -21.54211426 18.3321991 C-21.44926384 11.07477829 -19.27598154 7.55354027 -14.4375 2.125 C-10.18816103 -1.21608331 -5.11463654 -0.82322019 0 0 Z " fill="#FEFEFE" transform="translate(261,187)"/>
<path d="M0 0 C5.13323344 4.54991146 8.60013454 8.40923689 9.203125 15.33203125 C9.33596323 22.36138745 8.37965794 27.31525771 3.5625 32.75 C-2.50325163 38.07602582 -6.41538491 39.31349547 -14.46875 39.21875 C-20.26850644 38.71753648 -24.7942083 35.97213661 -29 32 C-33.19720814 26.00398838 -33.6190881 20.16373372 -33 13 C-31.50750607 7.29340557 -28.32154086 2.6250786 -23.5 -0.75 C-15.98421124 -4.50789438 -7.25361644 -4.12460543 0 0 Z " fill="#FEFCFC" transform="translate(268,334)"/>
</svg>
